<?xml version="1.0" encoding="UTF-8" standalone="no"?>
<!-- Created with Inkscape (http://www.inkscape.org/) -->

<svg
   xmlns:dc="http://purl.org/dc/elements/1.1/"
   xmlns:cc="http://creativecommons.org/ns#"
   xmlns:rdf="http://www.w3.org/1999/02/22-rdf-syntax-ns#"
   xmlns:svg="http://www.w3.org/2000/svg"
   xmlns="http://www.w3.org/2000/svg"
   xmlns:sodipodi="http://sodipodi.sourceforge.net/DTD/sodipodi-0.dtd"
   xmlns:inkscape="http://www.inkscape.org/namespaces/inkscape"
   width="228.60001mm"
   height="228.60001mm"
   viewBox="0 0 810.00002 810.00002"
   id="svg6093"
   version="1.1"
   inkscape:version="0.92.5 (2060ec1f9f, 2020-04-08)"
   sodipodi:docname="ic_launcher-with-letters(simpler)-alignment-lines.svg">
  <defs
     id="defs6095" />
  <sodipodi:namedview
     id="base"
     pagecolor="#ffffff"
     bordercolor="#666666"
     borderopacity="1.0"
     inkscape:pageopacity="0.0"
     inkscape:pageshadow="2"
     inkscape:zoom="0.49497474"
     inkscape:cx="858.02671"
     inkscape:cy="475.00622"
     inkscape:document-units="px"
     inkscape:current-layer="layer1"
     showgrid="false"
     inkscape:window-width="1335"
     inkscape:window-height="743"
     inkscape:window-x="31"
     inkscape:window-y="0"
     inkscape:window-maximized="1"
     fit-margin-top="0"
     fit-margin-left="0"
     fit-margin-right="0"
     fit-margin-bottom="0"
     showguides="true">
    <inkscape:grid
       type="xygrid"
       id="grid826" />
  </sodipodi:namedview>
  <metadata
     id="metadata6098">
    <rdf:RDF>
      <cc:Work
         rdf:about="">
        <dc:format>image/svg+xml</dc:format>
        <dc:type
           rdf:resource="http://purl.org/dc/dcmitype/StillImage" />
        <dc:title></dc:title>
      </cc:Work>
    </rdf:RDF>
  </metadata>
  <g
     inkscape:label="Ebene 1"
     inkscape:groupmode="layer"
     id="layer1"
     transform="translate(37.142883,-136.64789)">
    <path
       inkscape:connector-curvature="0"
       id="path4807"
       d="m 118.48196,866.02475 c 0.12726,-0.4634 32.53204,-47.14216 72.01061,-103.73065 39.47855,-56.58856 79.83684,-114.4468 89.68505,-128.57406 10.90243,-15.63954 17.90583,-26.31182 17.90583,-27.2864 0,-1.30403 -0.41911,-1.59928 -2.26095,-1.59289 -8.98844,0.0312 -106.62398,-2.69525 -106.83933,-2.98346 -0.375,-0.5019 -8.15168,9.57648 126.28363,-163.66223 135.93425,-175.17035 135.95951,-175.2031 135.95951,-176.3129 0,-0.44156 -0.2472,-1.01082 -0.54937,-1.265 -0.30219,-0.25419 -37.25322,-2.13173 -82.11339,-4.17228 -44.86021,-2.04058 -81.66766,-3.85121 -81.79434,-4.02365 -0.12668,-0.17241 37.98666,-50.84825 84.69634,-112.61296 46.70965,-61.764702 115.78276,-153.106049 153.49581,-202.980781 37.713,-49.874719 69.17645,-90.951739 69.91875,-91.282239 1.02759,-0.45753 226.44074,-10.27952 242.82081,-10.58047 2.55482,-0.0469 2.97015,-0.21176 1.80879,-0.71798 -0.95061,-0.41439 0.83065,-0.64597 4.82344,-0.62708 3.48191,0.0166 5.77308,0.18057 5.09156,0.36468 -0.6817,0.18407 -3.66609,3.40706 -6.63215,7.16215 -2.96629,3.75512 -67.66014,82.275522 -143.76425,174.489799 C 538.1097,210.61906 549.4674,196.7115 549.89966,198.2446 c 0.28988,1.02821 9.58193,1.20455 68.55205,1.30083 37.51922,0.0615 77.91796,0.33825 89.775,0.61548 L 729.78512,200.665 562.19726,374.23148 C 453.9921,486.29684 394.59915,548.30687 394.58039,549.23412 c -0.0273,1.33345 1.14586,1.43654 16.40072,1.44185 9.03632,0 44.78222,-0.40119 79.43531,-0.89859 34.6531,-0.49733 63.81958,-0.77683 64.81442,-0.62114 1.61795,0.25317 1.14078,0.76812 -4.52195,4.88005 -8.91315,6.47219 -342.34091,247.78216 -382.55571,276.86502 -47.10545,34.06608 -49.92923,36.0629 -49.67122,35.12344 z"
       style="fill:#4fc3f7;fill-opacity:1;stroke-width:0.98911405" />
    <g
       transform="matrix(1.0155065,0,-0.31231908,0.98473027,-24.625,-32.125)"
       style="font-style:normal;font-weight:normal;font-size:362.85510254px;line-height:0%;font-family:sans-serif;letter-spacing:0px;word-spacing:0px;fill:#000000;fill-opacity:1;stroke:none;stroke-width:1px;stroke-linecap:butt;stroke-linejoin:miter;stroke-opacity:1"
       id="text4302">
      <path
         d="m 383.02014,303.4248 v 34.90354 q -20.37516,-9.74465 -38.44705,-14.52838 -18.07188,-4.78373 -34.90354,-4.78373 -29.23393,0 -45.17971,11.33922 -15.76861,11.33922 -15.76861,32.24591 0,17.54036 10.45335,26.5763 10.63052,8.85877 40.04163,14.3512 l 21.61539,4.42939 q 40.04163,7.61854 58.99939,26.93065 19.13493,19.13494 19.13493,51.38085 0,38.44705 -25.8676,58.29069 -25.69042,19.84364 -75.47669,19.84364 -18.78059,0 -40.04163,-4.25221 -21.08386,-4.25221 -43.76231,-12.57945 v -36.85247 q 21.79257,12.2251 42.69926,18.42623 20.90669,6.20114 41.10468,6.20114 30.65133,0 47.30582,-12.04792 16.65448,-12.04793 16.65448,-34.37202 0,-19.48929 -12.04793,-30.47416 -11.87074,-10.98487 -39.15575,-16.47731 l -21.79256,-4.2522 q -40.04163,-7.97289 -57.93634,-24.98173 -17.89471,-17.00883 -17.89471,-47.30581 0,-35.08072 24.62737,-55.27871 24.80455,-20.19799 68.21251,-20.19799 18.60341,0 37.91552,3.36633 19.31211,3.36633 39.5101,10.099 z"
         style="line-height:0%;letter-spacing:0px;fill:#ffffff;fill-opacity:1"
         id="path4344"
         inkscape:connector-curvature="0" />
    </g>
    <g
       transform="matrix(1.0155065,0,-0.31231908,0.98473027,71.445311,-72.868219)"
       style="font-style:normal;font-weight:normal;font-size:362.85510254px;line-height:0%;font-family:sans-serif;letter-spacing:0px;word-spacing:0px;fill:#000000;fill-opacity:1;stroke:none;stroke-width:1px;stroke-linecap:butt;stroke-linejoin:miter;stroke-opacity:1"
       id="text4302-5">
      <path
         d="m 704.74097,648.99882 h 152.01644 v 30.11981 H 740.53039 v 77.95715 h 104.8878 v 30.11981 h -104.8878 v 126.32602 h -35.78942 z"
         style="line-height:0%;letter-spacing:0px;fill:#ffffff;fill-opacity:1"
         id="path4347"
         inkscape:connector-curvature="0" />
    </g>
  </g>
</svg>
