<?xml version="1.0" encoding="UTF-8" standalone="no"?>
<!-- Created with Inkscape (http://www.inkscape.org/) -->

<svg
   xmlns:dc="http://purl.org/dc/elements/1.1/"
   xmlns:cc="http://creativecommons.org/ns#"
   xmlns:rdf="http://www.w3.org/1999/02/22-rdf-syntax-ns#"
   xmlns:svg="http://www.w3.org/2000/svg"
   xmlns="http://www.w3.org/2000/svg"
   xmlns:sodipodi="http://sodipodi.sourceforge.net/DTD/sodipodi-0.dtd"
   xmlns:inkscape="http://www.inkscape.org/namespaces/inkscape"
   width="137.11301mm"
   height="137.11301mm"
   viewBox="0 0 485.8335 485.83349"
   id="svg6093"
   version="1.1"
   inkscape:version="0.92.5 (2060ec1f9f, 2020-04-08)"
   sodipodi:docname="Shortcut3(simpler).svg">
  <defs
     id="defs6095" />
  <sodipodi:namedview
     id="base"
     pagecolor="#ffffff"
     bordercolor="#666666"
     borderopacity="1.0"
     inkscape:pageopacity="0.0"
     inkscape:pageshadow="2"
     inkscape:zoom="0.70000002"
     inkscape:cx="410.40974"
     inkscape:cy="187.35876"
     inkscape:document-units="px"
     inkscape:current-layer="layer1"
     showgrid="false"
     inkscape:window-width="1335"
     inkscape:window-height="743"
     inkscape:window-x="31"
     inkscape:window-y="0"
     inkscape:window-maximized="1"
     fit-margin-top="0"
     fit-margin-left="0"
     fit-margin-right="0"
     fit-margin-bottom="0" />
  <metadata
     id="metadata6098">
    <rdf:RDF>
      <cc:Work
         rdf:about="">
        <dc:format>image/svg+xml</dc:format>
        <dc:type
           rdf:resource="http://purl.org/dc/dcmitype/StillImage" />
        <dc:title />
      </cc:Work>
    </rdf:RDF>
  </metadata>
  <g
     inkscape:label="Ebene 1"
     inkscape:groupmode="layer"
     id="layer1"
     transform="translate(-309.09864,-277.15736)">
    <circle
       style="fill:#2640d1;stroke-width:0.93749994;fill-opacity:1"
       id="path8"
       cx="552.48224"
       cy="519.60724"
       r="243.38361" />
    <path
       style="fill:#ffffff;fill-opacity:1;stroke-width:0.2631053"
       clip-path="none"
       d="m 568.74529,410.37168 c -18.53585,21.85803 -37.20143,43.60636 -55.6221,65.56192 46.38885,2.37286 0,0 46.38885,2.37286 -24.35398,28.68958 -49.58169,56.62273 -73.97198,85.28104 30.54786,1.0941 0,0 30.54786,1.0941 -49.28873,63.81124 0,0 -50.14454,65.09496 41.09831,-26.35656 82.24363,-52.64125 123.12335,-79.33653 -45.53253,-0.0538 0,0 -45.53253,-0.0538 31.25416,-29.42904 63.03149,-58.29404 94.55318,-87.43465 -50.83089,-0.6801 0,0 -50.83089,-0.6801 15.4484,-17.33134 31.51696,-34.52198 47.21785,-51.62201 -21.90991,-0.23526 -43.81911,-0.0426 -65.72905,-0.27783 z"
       id="path4807-5"
       inkscape:connector-curvature="0"
       sodipodi:nodetypes="cccccccccccc" />
  </g>
</svg>
